<svg width="67" height="59" viewBox="0 0 67 59" fill="none" xmlns="http://www.w3.org/2000/svg">
<path d="M65.7354 32.9391V17.7972C65.7354 13.3351 63.907 9.0558 60.6525 5.90063C57.3979 2.74546 52.9838 0.9729 48.3812 0.9729H18.8791C14.2765 0.9729 9.86237 2.74546 6.60783 5.90063C3.35329 9.0558 1.5249 13.3351 1.5249 17.7972V41.3513C1.5249 43.5607 1.97378 45.7484 2.84591 47.7897C3.71804 49.8309 4.99634 51.6856 6.60783 53.2479C9.86237 56.403 14.2765 58.1756 18.8791 58.1756H40.6065" stroke="#A1A3AB" stroke-width="1.5" stroke-linecap="round" stroke-linejoin="round"/>
<path d="M2.42749 46.3986L11.9376 35.631C13.1865 34.4285 14.8257 33.6812 16.5777 33.5156C18.3297 33.35 20.0868 33.7764 21.5518 34.7225C23.0168 35.6686 24.774 36.095 26.5259 35.9294C28.2779 35.7639 29.9171 35.0166 31.166 33.814L39.2531 25.9739C41.5768 23.7135 44.6534 22.327 47.9338 22.062C51.2142 21.797 54.485 22.6706 57.1626 24.527L65.7356 30.9539M19.7817 23.4166C20.5383 23.4122 21.2866 23.2633 21.9839 22.9785C22.6812 22.6937 23.3138 22.2786 23.8456 21.7568C24.3774 21.235 24.7979 20.6167 25.0833 19.9374C25.3686 19.258 25.5131 18.5308 25.5086 17.7972C25.504 17.0637 25.3505 16.3383 25.0567 15.6623C24.7629 14.9863 24.3347 14.373 23.7965 13.8574C23.2583 13.3419 22.6205 12.9342 21.9198 12.6575C21.219 12.3809 20.4689 12.2408 19.7123 12.2452C18.1842 12.2541 16.7224 12.8512 15.6484 13.905C14.5744 14.9588 13.9762 16.3831 13.9854 17.8645C13.9946 19.346 14.6104 20.7631 15.6975 21.8044C16.7845 22.8456 18.2536 23.4255 19.7817 23.4166Z" stroke="#A1A3AB" stroke-width="1.5" stroke-linecap="round" stroke-linejoin="round"/>
<path d="M56.9093 39.6689V56.4933" stroke="#A1A3AB" stroke-width="1.5" stroke-miterlimit="10" stroke-linecap="round"/>
<path d="M64.8675 46.7519L58.0403 40.1332C57.8924 39.9879 57.7163 39.8726 57.522 39.7938C57.3278 39.7151 57.1194 39.6746 56.9088 39.6746C56.6983 39.6746 56.4899 39.7151 56.2956 39.7938C56.1014 39.8726 55.9252 39.9879 55.7773 40.1332L48.9502 46.7519" stroke="#A1A3AB" stroke-width="1.5" stroke-linecap="round" stroke-linejoin="round"/>
</svg>
