<?xml version="1.0" encoding="UTF-8"?><svg id="a" xmlns="http://www.w3.org/2000/svg" viewBox="0 0 800 600.7"><path d="M312.88,534.14c-.76,1.86-1.29,3.7-2.21,5.31-1.47,2.56-3.67,3.86-6.82,3.83-12.56-.1-25.12-.01-37.68-.1-1.41,0-3.29-.23-4.14-1.13-2.06-2.16-4.45-2.07-7.01-2.04-4.15,.06-8.32-.18-12.45,.09-2.66,.17-3.77-1.12-4.09-3.3-1.77-12.01,3.86-21.7,16.45-22.95,3.68-.36,7.38-.6,11.04-.88,2.37-8.8,5.1-17.48,6.95-26.35,.97-4.67,.66-9.67,.51-14.51-.51-17.44-.99-34.89-1.89-52.31-.62-11.97-1.99-23.9-2.88-35.86-.44-5.94-.2-11.93-.89-17.83-.52-4.45-1.57-8.98-3.22-13.13-2.81-7.05-5.73-13.94-4.58-21.78,.08-.57-.22-1.19-.38-1.98-1.76,.25-3.38,.47-5.43,.76,2-4.73,.88-8.86-.85-12.9-5.65-13.26-8.03-27.18-8.64-41.5-.24-5.63-.71-11.25-1.33-16.85-.59-5.34,.4-10.33,2.47-15.21,1.88-4.43,3.2-8.88,2.62-13.88-.24-2.12,.95-4.47,1.72-6.63,1.35-3.76,2.98-7.42,4.29-11.2,1.32-3.79,2.28-7.71,3.57-11.51,2.42-7.11-.84-12.18-8.39-12.21-3.88-.01-7.78,.77-11.63,1.43-7.35,1.25-12.27-.75-16.12-7.27-2.33-3.95-4.46-7.93-8.37-10.65-.97-.68-1.61-1.97-2.15-3.1-1.78-3.71-3.51-7.45-5.15-11.23-2-4.63-.75-7.55,3.67-10.23,5.63-3.41,8.25-9.04,9.82-15.08,.82-3.13,.91-6.51,.91-9.78,0-4.19,1.16-7.71,4.4-10.48,5.01-4.28,9.85-8.79,15.04-12.84,2.54-1.97,5.62-3.35,8.63-4.58,4.57-1.87,6.45-4.59,5.24-9.41-2.59-10.26-5.47-20.44-8.14-30.69-.53-2.04-.63-4.2-.93-6.3l1.06-.43c1.11,1.04,2.37,1.96,3.3,3.13,6.21,7.84,13.93,13.99,21.97,19.8,3.1,2.24,6.15,4.54,9.27,6.75,1.38,.98,2.8,1.94,4.3,2.72,7.48,3.9,11.87,2.51,15.44-5.09,3.51-7.48,6.74-15.1,10.26-22.58,.93-1.98,2.33-3.82,3.83-5.43,2.81-3.01,6.48-3.41,9.27-.39,2.74,2.97,5.18,6.49,6.75,10.2,4.05,9.56,4.99,19.89,6.53,30.07,.69,4.55,1.92,9.13,3.68,13.38,2.35,5.68,4.14,11.33,3.85,17.54-.36,7.72,2.28,14.79,4.73,21.94,4.43,12.92,8.82,25.87,12.87,38.91,1.96,6.31,5.28,11.18,10.99,14.59,4.73,2.83,9.24,6.03,13.85,9.07,9.25,6.11,14.69,15.46,20.89,24.22,3.18,4.5,6.63,8.9,10.54,12.77,3.02,2.99,6.92,5.11,10.47,7.56,2.61,1.81,5.56,3.22,7.86,5.35,14.99,13.84,28.33,29.13,39.31,46.36,7.75,12.16,11.77,25.87,14.74,39.79,3.5,16.44,8.79,32.14,17.33,46.61,6.62,11.22,6.29,22.98,5.13,35.45-1.07,11.57-5.06,22.29-7.05,33.51-.94,5.32-.48,11.05,.26,16.47,1,7.36,.18,14.15-3.65,20.53-3.35,5.59-3.54,8.22,4.67,10.57,8.79,2.52,17.73,1.6,26.41-.8,24.84-6.88,46.12-19.83,59.14-42.25,9.79-16.85,20.3-33.64,26.37-52.49,4.32-13.41,5.74-27.18,4.69-41.2-.82-10.92-1.91-21.82-2.66-32.74-.24-3.47-.11-7.05,.48-10.47,.89-5.19,5.38-7.06,9.48-3.77,2.74,2.2,5.1,5.16,6.89,8.21,5.98,10.2,8.82,21.51,11.04,33.02,4.89,25.38-.78,49.33-9.59,72.89-7.31,19.56-16,38.41-28.99,54.95-19.39,24.67-43.33,42.63-74.59,49.25-19.19,4.07-38.42,3.62-57.44-1.29-3.83-.99-6.62-.47-9.9,2.01-2.87,2.17-6.83,3.41-10.47,3.94-5.44,.8-11.03,.84-16.55,.8-13.72-.09-27.45-.53-41.17-.61-19.25-.12-38.5-.01-57.75-.09-6.6-.03-13.19-.46-19.78-.44-4.7,.02-8.33-1.35-9.98-6.04Zm3.64-17.66c2.28-.87,4.54-1.94,6.91-2.58,2.27-.61,2.83-1.45,1.96-3.79-2.13-5.74-3.95-11.59-5.92-17.39-.16-.46-.53-.85-1.2-1.87,.67,9.23,1.26,17.69-1.75,25.64ZM243.95,138.84c2.39-.33,4.28-.43,6.07-.91,.68-.18,1.58-1.23,1.6-1.91,.15-3.96,.07-7.93,.07-12.2-5.63,3.44-6.67,8.8-7.75,15.02Zm12.46-15.5c-.21,3.92-.38,7.29-.6,11.41,3.31-3.19,6.13-5.91,9.57-9.22-3.61-.88-6.13-1.5-8.97-2.19Z"/></svg>