<svg width="44" height="42" viewBox="0 0 44 42" fill="none" xmlns="http://www.w3.org/2000/svg">
<path d="M6.07715 34.0489C6.07715 36.9783 8.46183 39.375 11.3764 39.375H33.236C36.1506 39.375 38.5353 36.8451 38.5353 33.9158V8.43899C38.5353 6.73274 36.3849 5.94524 35.1752 7.12649L29.0327 13.125H15.7628L9.45821 7.12649C8.24102 5.94524 6.07715 6.73274 6.07715 8.43899V34.0489Z" fill="#FFB02E"/>
<path d="M12.8394 14.341L9.05257 17.7535C8.37636 18.4098 7.15918 17.8848 7.15918 16.966V10.141C7.15918 9.3535 8.37636 8.8285 9.05257 9.48475L12.8394 12.8973C13.2451 13.291 13.2451 13.9473 12.8394 14.341Z" fill="#FF822D"/>
<path d="M31.8408 14.341L35.6276 17.7535C36.3038 18.4098 37.521 17.8848 37.521 16.966V10.141C37.521 9.3535 36.3038 8.8285 35.6276 9.48475L31.8408 12.8973C31.4351 13.291 31.4351 13.9473 31.8408 14.341Z" fill="#FF822D"/>
<path d="M23.7167 26.25H20.8958C20.2934 26.25 19.9917 26.9569 20.4177 27.3703L21.8281 28.7391C22.0922 28.9954 22.5203 28.9954 22.7844 28.7391L24.1948 27.3703C24.6208 26.9569 24.3191 26.25 23.7167 26.25Z" fill="#F70A8D"/>
<path d="M4.35108 26.3192C4.01705 26.1572 3.61087 26.2886 3.44385 26.6127C3.27684 26.9369 3.41223 27.3311 3.74626 27.4932L9.15595 30.1182C9.48999 30.2803 9.89617 30.1489 10.0632 29.8247C10.2302 29.5005 10.0948 29.1063 9.76078 28.9442L4.35108 26.3192Z" fill="#FF6723"/>
<path d="M4.35108 35.3682C4.01705 35.5303 3.61087 35.3989 3.44385 35.0747C3.27684 34.7505 3.41223 34.3563 3.74626 34.1942L9.15595 31.5692C9.48999 31.4072 9.89617 31.5386 10.0632 31.8627C10.2302 32.1869 10.0948 32.5811 9.76078 32.7432L4.35108 35.3682Z" fill="#FF6723"/>
<path d="M41.1689 26.6127C41.0019 26.2886 40.5957 26.1572 40.2617 26.3192L34.852 28.9442C34.5179 29.1063 34.3826 29.5005 34.5496 29.8247C34.7166 30.1489 35.1228 30.2803 35.4568 30.1182L40.8665 27.4932C41.2005 27.3311 41.3359 26.9369 41.1689 26.6127Z" fill="#FF6723"/>
<path d="M40.2617 35.3682C40.5957 35.5303 41.0019 35.3989 41.1689 35.0747C41.3359 34.7505 41.2005 34.3563 40.8665 34.1942L35.4568 31.5692C35.1228 31.4072 34.7166 31.5386 34.5496 31.8627C34.3826 32.1869 34.5179 32.5811 34.852 32.7432L40.2617 35.3682Z" fill="#FF6723"/>
<path d="M16.8966 22.3125C16.1497 22.3125 15.5442 22.9001 15.5442 23.625V24.9375C15.5442 25.6624 16.1497 26.25 16.8966 26.25C17.6435 26.25 18.249 25.6624 18.249 24.9375V23.625C18.249 22.9001 17.6435 22.3125 16.8966 22.3125Z" fill="#402A32"/>
<path d="M27.716 22.3125C26.9691 22.3125 26.3636 22.9001 26.3636 23.625V24.9375C26.3636 25.6624 26.9691 26.25 27.716 26.25C28.4629 26.25 29.0684 25.6624 29.0684 24.9375V23.625C29.0684 22.9001 28.4629 22.3125 27.716 22.3125Z" fill="#402A32"/>
<path d="M22.3062 30.3265C21.5793 31.0338 20.3363 31.5 18.9251 31.5C17.5296 31.5 16.2987 31.0442 15.5686 30.3502C15.7313 31.3006 16.8236 36.0938 22.3062 36.0938C27.7887 36.0938 28.881 31.3006 29.0437 30.3502C28.3136 31.0442 27.0827 31.5 25.6872 31.5C24.276 31.5 23.033 31.0338 22.3062 30.3265Z" fill="#BB1D80"/>
</svg>